<mxfile host="Electron" agent="Mozilla/5.0 (Macintosh; Intel Mac OS X 10_15_7) AppleWebKit/537.36 (KHTML, like Gecko) draw.io/27.0.9 Chrome/134.0.6998.205 Electron/35.4.0 Safari/537.36" version="27.0.9">
  <diagram name="페이지-1" id="_tKk17_IzhRB0h72TxY4">
    <mxGraphModel dx="1008" dy="566" grid="1" gridSize="10" guides="1" tooltips="1" connect="1" arrows="1" fold="1" page="1" pageScale="1" pageWidth="827" pageHeight="1169" math="1" shadow="0">
      <root>
        <mxCell id="0" />
        <mxCell id="1" parent="0" />
        <mxCell id="dy6sLSSkbK1G9t8MEil--47" value="" style="shape=cylinder3;whiteSpace=wrap;html=1;boundedLbl=1;backgroundOutline=1;size=9.481481481481381;fillColor=#d5e8d4;strokeColor=#82b366;" parent="1" vertex="1">
          <mxGeometry x="534.88" y="200" width="140" height="90" as="geometry" />
        </mxCell>
        <mxCell id="dy6sLSSkbK1G9t8MEil--48" value="Goal" style="text;html=1;align=center;verticalAlign=middle;whiteSpace=wrap;rounded=0;fontSize=30;fontColor=#B9E0A5;fontStyle=1" parent="1" vertex="1">
          <mxGeometry x="567.32" y="160" width="75.12" height="30" as="geometry" />
        </mxCell>
        <mxCell id="dy6sLSSkbK1G9t8MEil--52" value="&lt;font style=&quot;color: rgb(234, 107, 102);&quot;&gt;Agent&lt;/font&gt;" style="text;html=1;align=center;verticalAlign=middle;whiteSpace=wrap;rounded=0;fontSize=30;fontColor=#B9E0A5;fontStyle=1" parent="1" vertex="1">
          <mxGeometry x="94.63" y="360" width="90.63" height="30" as="geometry" />
        </mxCell>
        <mxCell id="dy6sLSSkbK1G9t8MEil--2" value="" style="rounded=0;whiteSpace=wrap;html=1;fillColor=#f8cecc;strokeColor=default;rotation=-145;container=0;opacity=60;" parent="1" vertex="1">
          <mxGeometry x="191" y="536" width="78.75" height="68.57142857142857" as="geometry" />
        </mxCell>
        <mxCell id="dy6sLSSkbK1G9t8MEil--3" value="" style="rounded=0;whiteSpace=wrap;html=1;fillColor=#dae8fc;strokeColor=default;rotation=-145;container=0;opacity=60;" parent="1" vertex="1">
          <mxGeometry x="242" y="527" width="26.25" height="17.142857142857142" as="geometry" />
        </mxCell>
        <mxCell id="dy6sLSSkbK1G9t8MEil--4" value="" style="rounded=0;whiteSpace=wrap;html=1;fillColor=#dae8fc;strokeColor=default;rotation=-145;container=0;opacity=60;" parent="1" vertex="1">
          <mxGeometry x="201" y="597" width="8.75" height="17.142857142857142" as="geometry" />
        </mxCell>
        <mxCell id="dy6sLSSkbK1G9t8MEil--5" value="" style="rounded=0;whiteSpace=wrap;html=1;fillColor=#dae8fc;strokeColor=default;rotation=-145;container=0;opacity=60;" parent="1" vertex="1">
          <mxGeometry x="150" y="612" width="96.25" height="8.571428571428571" as="geometry" />
        </mxCell>
        <mxCell id="dy6sLSSkbK1G9t8MEil--6" value="" style="shape=cylinder3;whiteSpace=wrap;html=1;boundedLbl=1;backgroundOutline=1;size=2.875;direction=south;fillColor=#f8cecc;strokeColor=default;rotation=-145;container=0;opacity=60;" parent="1" vertex="1">
          <mxGeometry x="138" y="570" width="21.875" height="25.71428571428571" as="geometry" />
        </mxCell>
        <mxCell id="dy6sLSSkbK1G9t8MEil--7" value="" style="shape=cylinder3;whiteSpace=wrap;html=1;boundedLbl=1;backgroundOutline=1;size=2.875;direction=south;fillColor=#f8cecc;strokeColor=default;rotation=-145;container=0;opacity=60;" parent="1" vertex="1">
          <mxGeometry x="235" y="637" width="21.875" height="25.71428571428571" as="geometry" />
        </mxCell>
        <mxCell id="kyaiNh2SrCvYwGknFWDj-3" value="" style="rounded=0;whiteSpace=wrap;html=1;fillColor=#f8cecc;strokeColor=default;rotation=-150;container=0;" parent="1" vertex="1">
          <mxGeometry x="439.9994294504296" y="365.9997203907471" width="78.75" height="68.57142857142857" as="geometry" />
        </mxCell>
        <mxCell id="kyaiNh2SrCvYwGknFWDj-4" value="" style="rounded=0;whiteSpace=wrap;html=1;fillColor=#dae8fc;strokeColor=default;rotation=-150;container=0;" parent="1" vertex="1">
          <mxGeometry x="487.9994294504296" y="354.9997203907471" width="26.25" height="17.142857142857142" as="geometry" />
        </mxCell>
        <mxCell id="kyaiNh2SrCvYwGknFWDj-5" value="" style="rounded=0;whiteSpace=wrap;html=1;fillColor=#dae8fc;strokeColor=default;rotation=-150;container=0;" parent="1" vertex="1">
          <mxGeometry x="452.9994294504296" y="428.9997203907471" width="8.75" height="17.142857142857142" as="geometry" />
        </mxCell>
        <mxCell id="kyaiNh2SrCvYwGknFWDj-6" value="" style="rounded=0;whiteSpace=wrap;html=1;fillColor=#dae8fc;strokeColor=default;rotation=-150;container=0;" parent="1" vertex="1">
          <mxGeometry x="402.9994294504296" y="443.9997203907471" width="96.25" height="8.571428571428571" as="geometry" />
        </mxCell>
        <mxCell id="kyaiNh2SrCvYwGknFWDj-7" value="" style="shape=cylinder3;whiteSpace=wrap;html=1;boundedLbl=1;backgroundOutline=1;size=2.875;direction=south;fillColor=#f8cecc;strokeColor=default;rotation=-150;container=0;" parent="1" vertex="1">
          <mxGeometry x="387.9994294504296" y="406.9997203907471" width="21.875" height="25.71428571428571" as="geometry" />
        </mxCell>
        <mxCell id="kyaiNh2SrCvYwGknFWDj-8" value="" style="shape=cylinder3;whiteSpace=wrap;html=1;boundedLbl=1;backgroundOutline=1;size=2.875;direction=south;fillColor=#f8cecc;strokeColor=default;rotation=-150;container=0;" parent="1" vertex="1">
          <mxGeometry x="490.9994294504296" y="464.9997203907471" width="21.875" height="25.71428571428571" as="geometry" />
        </mxCell>
        <mxCell id="kyaiNh2SrCvYwGknFWDj-11" value="" style="rounded=0;whiteSpace=wrap;html=1;fillColor=#f8cecc;strokeColor=default;rotation=-126;container=0;opacity=80;shadow=1;" parent="1" vertex="1">
          <mxGeometry x="325.9994294504296" y="458.99972039074714" width="78.75" height="68.57142857142857" as="geometry" />
        </mxCell>
        <mxCell id="kyaiNh2SrCvYwGknFWDj-12" value="" style="rounded=0;whiteSpace=wrap;html=1;fillColor=#dae8fc;strokeColor=default;rotation=-126;container=0;opacity=80;shadow=1;" parent="1" vertex="1">
          <mxGeometry x="385.9994294504296" y="458.99972039074714" width="26.25" height="17.142857142857142" as="geometry" />
        </mxCell>
        <mxCell id="kyaiNh2SrCvYwGknFWDj-13" value="" style="rounded=0;whiteSpace=wrap;html=1;fillColor=#dae8fc;strokeColor=default;rotation=-126;container=0;opacity=80;shadow=1;" parent="1" vertex="1">
          <mxGeometry x="324.9994294504296" y="508.99972039074714" width="8.75" height="17.142857142857142" as="geometry" />
        </mxCell>
        <mxCell id="kyaiNh2SrCvYwGknFWDj-14" value="" style="rounded=0;whiteSpace=wrap;html=1;fillColor=#dae8fc;strokeColor=default;rotation=-126;container=0;opacity=80;shadow=1;" parent="1" vertex="1">
          <mxGeometry x="270.9994294504296" y="521.9997203907471" width="96.25" height="8.571428571428571" as="geometry" />
        </mxCell>
        <mxCell id="kyaiNh2SrCvYwGknFWDj-15" value="" style="shape=cylinder3;whiteSpace=wrap;html=1;boundedLbl=1;backgroundOutline=1;size=2.875;direction=south;fillColor=#f8cecc;strokeColor=default;rotation=-126;container=0;opacity=80;shadow=1;" parent="1" vertex="1">
          <mxGeometry x="272.9994294504296" y="464.99972039074714" width="21.875" height="25.71428571428571" as="geometry" />
        </mxCell>
        <mxCell id="kyaiNh2SrCvYwGknFWDj-16" value="" style="shape=cylinder3;whiteSpace=wrap;html=1;boundedLbl=1;backgroundOutline=1;size=2.875;direction=south;fillColor=#f8cecc;strokeColor=default;rotation=-126;container=0;opacity=80;shadow=1;" parent="1" vertex="1">
          <mxGeometry x="342.9994294504296" y="559.9997203907471" width="21.875" height="25.71428571428571" as="geometry" />
        </mxCell>
        <mxCell id="kyaiNh2SrCvYwGknFWDj-19" value="" style="curved=1;endArrow=classic;html=1;rounded=0;exitX=0.5;exitY=1;exitDx=0;exitDy=0;entryX=0.5;entryY=1;entryDx=0;entryDy=0;" parent="1" source="dy6sLSSkbK1G9t8MEil--5" target="kyaiNh2SrCvYwGknFWDj-4" edge="1">
          <mxGeometry width="50" height="50" relative="1" as="geometry">
            <mxPoint x="160" y="750" as="sourcePoint" />
            <mxPoint x="440" y="570" as="targetPoint" />
            <Array as="points">
              <mxPoint x="260" y="510" />
              <mxPoint x="310" y="540" />
              <mxPoint x="380" y="470" />
              <mxPoint x="440" y="460" />
              <mxPoint x="450" y="450" />
            </Array>
          </mxGeometry>
        </mxCell>
        <mxCell id="kyaiNh2SrCvYwGknFWDj-21" value="&lt;font&gt;`\text{pos}_{t - 1}`&lt;/font&gt;" style="text;html=1;align=center;verticalAlign=middle;whiteSpace=wrap;rounded=0;fontSize=20;" parent="1" vertex="1">
          <mxGeometry x="110" y="500.57" width="75.26" height="30" as="geometry" />
        </mxCell>
        <mxCell id="kyaiNh2SrCvYwGknFWDj-22" value="&lt;font&gt;`\text{pos}_t`&lt;/font&gt;" style="text;html=1;align=center;verticalAlign=middle;whiteSpace=wrap;rounded=0;fontSize=20;" parent="1" vertex="1">
          <mxGeometry x="393" y="325" width="60" height="30" as="geometry" />
        </mxCell>
        <mxCell id="QHuSpdjjvRMu_k9thkKk-1" value="" style="shape=waypoint;sketch=0;fillStyle=solid;size=6;pointerEvents=1;points=[];fillColor=none;resizable=0;rotatable=0;perimeter=centerPerimeter;snapToPoint=1;" vertex="1" parent="1">
          <mxGeometry x="215" y="562.86" width="20" height="20" as="geometry" />
        </mxCell>
        <mxCell id="QHuSpdjjvRMu_k9thkKk-2" value="" style="shape=waypoint;sketch=0;fillStyle=solid;size=6;pointerEvents=1;points=[];fillColor=none;resizable=0;rotatable=0;perimeter=centerPerimeter;snapToPoint=1;" vertex="1" parent="1">
          <mxGeometry x="594.88" y="240" width="20" height="20" as="geometry" />
        </mxCell>
        <mxCell id="QHuSpdjjvRMu_k9thkKk-3" value="" style="endArrow=none;dashed=1;html=1;rounded=0;exitX=0.325;exitY=0.544;exitDx=0;exitDy=0;exitPerimeter=0;" edge="1" parent="1" source="QHuSpdjjvRMu_k9thkKk-1" target="QHuSpdjjvRMu_k9thkKk-2">
          <mxGeometry width="50" height="50" relative="1" as="geometry">
            <mxPoint x="430" y="550" as="sourcePoint" />
            <mxPoint x="480" y="500" as="targetPoint" />
          </mxGeometry>
        </mxCell>
        <mxCell id="QHuSpdjjvRMu_k9thkKk-4" value="" style="shape=waypoint;sketch=0;fillStyle=solid;size=6;pointerEvents=1;points=[];fillColor=none;resizable=0;rotatable=0;perimeter=centerPerimeter;snapToPoint=1;" vertex="1" parent="1">
          <mxGeometry x="469.37" y="390.28999999999996" width="20" height="20" as="geometry" />
        </mxCell>
        <mxCell id="QHuSpdjjvRMu_k9thkKk-5" value="" style="endArrow=none;dashed=1;html=1;rounded=0;exitDx=0;exitDy=0;exitPerimeter=0;entryX=0.706;entryY=0.531;entryDx=0;entryDy=0;entryPerimeter=0;" edge="1" parent="1" target="QHuSpdjjvRMu_k9thkKk-2">
          <mxGeometry width="50" height="50" relative="1" as="geometry">
            <mxPoint x="540" y="330" as="sourcePoint" />
            <mxPoint x="947.32" y="260" as="targetPoint" />
          </mxGeometry>
        </mxCell>
        <mxCell id="QHuSpdjjvRMu_k9thkKk-8" value="`d_{t - 1} = 1.0`" style="text;html=1;align=center;verticalAlign=middle;whiteSpace=wrap;rounded=0;fontSize=20;" vertex="1" parent="1">
          <mxGeometry x="262.38" y="372.14" width="104.87" height="30" as="geometry" />
        </mxCell>
        <mxCell id="QHuSpdjjvRMu_k9thkKk-9" value="`d_t = 0.5`" style="text;html=1;align=center;verticalAlign=middle;whiteSpace=wrap;rounded=0;fontSize=20;" vertex="1" parent="1">
          <mxGeometry x="564.88" y="366" width="110" height="30" as="geometry" />
        </mxCell>
        <mxCell id="QHuSpdjjvRMu_k9thkKk-11" value="&lt;font&gt;reward = 0.5&lt;/font&gt;" style="text;html=1;align=center;verticalAlign=middle;whiteSpace=wrap;rounded=0;fontStyle=1;fontSize=25;fontColor=#3333FF;" vertex="1" parent="1">
          <mxGeometry x="319.12" y="710" width="160" height="30" as="geometry" />
        </mxCell>
        <mxCell id="QHuSpdjjvRMu_k9thkKk-12" value="" style="curved=1;endArrow=classic;html=1;rounded=0;entryX=0.5;entryY=1;entryDx=0;entryDy=0;" edge="1" parent="1" target="QHuSpdjjvRMu_k9thkKk-8">
          <mxGeometry width="50" height="50" relative="1" as="geometry">
            <mxPoint x="380" y="440" as="sourcePoint" />
            <mxPoint x="320" y="349" as="targetPoint" />
            <Array as="points">
              <mxPoint x="330" y="430" />
            </Array>
          </mxGeometry>
        </mxCell>
        <mxCell id="QHuSpdjjvRMu_k9thkKk-13" value="" style="curved=1;endArrow=classic;html=1;rounded=0;entryX=0.5;entryY=0;entryDx=0;entryDy=0;" edge="1" parent="1" target="QHuSpdjjvRMu_k9thkKk-9">
          <mxGeometry width="50" height="50" relative="1" as="geometry">
            <mxPoint x="540" y="330" as="sourcePoint" />
            <mxPoint x="560" y="490" as="targetPoint" />
            <Array as="points">
              <mxPoint x="590" y="340" />
            </Array>
          </mxGeometry>
        </mxCell>
        <mxCell id="QHuSpdjjvRMu_k9thkKk-15" value="" style="endArrow=none;dashed=1;html=1;rounded=0;exitX=0.825;exitY=0.767;exitDx=0;exitDy=0;exitPerimeter=0;entryDx=0;entryDy=0;entryPerimeter=0;" edge="1" parent="1" source="QHuSpdjjvRMu_k9thkKk-4">
          <mxGeometry width="50" height="50" relative="1" as="geometry">
            <mxPoint x="479" y="400" as="sourcePoint" />
            <mxPoint x="540" y="330" as="targetPoint" />
          </mxGeometry>
        </mxCell>
      </root>
    </mxGraphModel>
  </diagram>
</mxfile>
